Coordinates
version=1
nRows=9
nColumns=36
inDegrees=yes

Units are S.I. units (second, meters, Newtons, ...)
If the header above contains a line with 'inDegrees', this indicates whether rotational values are in degrees (yes) or radians (no).

endheader
time	pelvis_tilt	pelvis_list	pelvis_rotation	pelvis_tx	pelvis_ty	pelvis_tz	hip_flexion_r	hip_adduction_r	hip_rotation_r	knee_angle_r	knee_angle_r_beta	ankle_angle_r	subtalar_angle_r	mtp_angle_r	hip_flexion_l	hip_adduction_l	hip_rotation_l	knee_angle_l	knee_angle_l_beta	ankle_angle_l	subtalar_angle_l	mtp_angle_l	lumbar_extension	lumbar_bending	lumbar_rotation	arm_flex_r	arm_add_r	arm_rot_r	elbow_flex_r	pro_sup_r	arm_flex_l	arm_add_l	arm_rot_l	elbow_flex_l	pro_sup_l
      2.00000000	      5.13067007	     -1.43366037	      3.28247411	      0.25967390	      0.66192060	     -0.17405717	     38.40050045	    -17.94729479	     -3.74954660	      6.08823982	      0.10625983	     -3.26115225	      6.41035595	     -7.49999987	     43.88040824	     10.19062187	     -2.32386444	     90.17249596	      1.57380695	     21.29564324	    -33.30057251	     -7.49999987	    -40.15709362	      0.07820026	     -2.04206036	     97.40411037	      8.40353683	     69.68538396	    124.12881748	     98.40361570	     88.61761570	      6.75208872	     58.95223129	    107.47132418	     79.21920610
      2.01666670	      5.32450770	     -1.40983561	      3.26630789	      0.26202681	      0.66606113	     -0.17428967	     37.83861869	    -17.92646255	     -3.63613433	      5.88065224	      0.10263674	     -3.08518154	      6.26708517	     -7.49999987	     43.16327335	     10.16765954	     -2.32637301	     89.70552338	      1.56565674	     21.18579500	    -33.42080292	     -7.49999987	    -39.84674234	     -0.03093148	     -2.00149540	     97.33482319	      8.40558668	     70.02967341	    124.23345807	     95.05177624	     88.37546790	      6.58243086	     58.89305041	    107.59233325	     78.44030231
      2.03333330	      5.39923789	     -1.50839721	      3.23564755	      0.26294710	      0.66886299	     -0.17532687	     37.47822667	    -17.86821097	     -4.22639869	      5.88067796	      0.10263719	     -2.79849991	      6.79432293	     -7.49999987	     42.65763191	     10.03028146	     -2.32528099	     89.10441782	      1.55516547	     20.69472281	    -33.43613365	     -7.49999987	    -39.40847864	     -0.00739906	     -1.76266225	     96.95555485	      8.44769943	     70.02561042	    124.17048291	     97.85928524	     88.04378200	      6.35104754	     58.97366979	    107.40674004	     78.46118211
      2.05000000	      5.79435027	     -1.42312573	      3.26764363	      0.26296367	      0.67149370	     -0.17531350	     36.68211387	    -17.87611612	     -4.14769375	      5.54993801	      0.09686469	     -2.42521584	      6.74973683	     -7.49999987	     41.88188414	     10.03674713	     -2.41493542	     88.42122820	      1.54324156	     20.43829984	    -33.45924264	     -7.49999987	    -39.30190521	     -0.21097506	     -1.58039524	     97.13022557	      8.42358790	     70.41445605	    124.23286127	     90.40433872	     88.00513772	      6.25927446	     59.10236860	    106.92853623	     75.49223263
      2.06666670	      6.11054284	     -1.31250799	      3.17966633	      0.26663807	      0.67942362	     -0.17657105	     35.60084773	    -17.88321445	     -4.40108364	      4.80749675	      0.08390665	     -2.29654762	      7.09537493	     -7.49999987	     40.69325540	     10.00352522	     -2.56710324	     87.23086503	      1.52246580	     19.92649812	    -33.48103934	     -7.49999987	    -38.88158502	     -0.55234320	     -1.56092444	     96.48732420	      8.48737317	     70.78644719	    124.16745146	     91.30915736	     87.16833887	      6.02938094	     59.35227600	    106.63550426	     75.75173133
      2.08333330	      6.23083198	     -1.26859579	      3.20273966	      0.26373127	      0.68118842	     -0.17697561	     35.17682461	    -17.88352921	     -4.88300461	      4.56115985	      0.07960726	     -1.61843554	      7.58699585	     -7.49999987	     40.12249331	      9.99818940	     -2.65164698	     86.38334772	      1.50767384	     19.31630574	    -33.47388719	     -7.49999987	    -38.64714910	     -0.70577548	     -1.27114614	     96.79028745	      8.67989757	     70.54656177	    124.05059489	     98.04670386	     87.34628373	      6.13150459	     59.23004819	    105.59222436	     77.56428172
      2.10000000	      6.42599581	     -1.48630440	      3.04158076	      0.26408668	      0.68601999	     -0.17621906	     34.87036807	    -17.46846010	     -4.79831783	      4.98930198	      0.08707975	     -1.07791667	      7.11038273	     -7.49999987	     39.55531575	      9.57407407	     -2.60411972	     85.54144148	      1.49297980	     18.49936101	    -33.56573140	     -7.49999987	    -38.48067149	     -0.76773688	     -0.68132427	     97.21125609	      8.64621669	     70.27261497	    123.94904464	     98.33748522	     87.66470024	      6.23431155	     59.30205367	    105.00225001	     77.20948698
      2.11666670	      6.26624418	     -1.42007017	      3.24221550	      0.26341366	      0.69263267	     -0.17681732	     34.54976213	    -17.48695815	     -4.85056876	      4.92643783	      0.08598256	     -0.57938050	      6.70974433	     -7.49999987	     38.96201262	      9.54658694	     -2.58837483	     84.29907567	      1.47129643	     18.01969279	    -33.50879762	     -7.49999987	    -37.93183015	     -0.78005760	     -0.39806482	     97.24200336	      8.63908972	     70.33304708	    123.83012906	     98.33790806	     87.64676165	      6.37975520	     59.48933897	    104.97680867	     77.21544024
      2.13333330	      6.62731310	     -1.27219298	      3.32630573	      0.26649954	      0.69985140	     -0.17750593	     33.58993536	    -17.56853078	     -4.91191169	      4.72436658	      0.08245575	     -0.32310107	      6.39735099	     -7.49999987	     37.36138308	      9.52085528	     -2.52393607	     82.47136117	      1.43939679	     17.59862065	    -33.47971477	     -7.49999987	    -37.72882678	     -1.12727366	     -0.33872306	     96.94990384	      8.49461054	     70.33741282	    123.88623647	     98.34279818	     87.47552763	      6.45446895	     59.87038276	    105.04203041	     76.98418309
